<svg xml:space="preserve" viewBox="0 0 300 120"><path fill="#C9C9CA" d="M150.82 6.46C70.48 6.46 6.08 30.54 6.08 60.74c0 30.01 64.93 54.28 144.74 54.28 79.82 0 144.76-24.35 144.76-54.28S230.64 6.46 150.82 6.46M294.7 56.55l.13.79-.13-.8"/><radialGradient id="a" cx="149.87" cy="185.55" r="623.71" gradientTransform="matrix(1 0 0 .5079 0 91.31)" gradientUnits="userSpaceOnUse"><stop offset="0" style="stop-color:#00082e"/><stop offset=".15" style="stop-color:#000a30"/><stop offset=".24" style="stop-color:#010f39"/><stop offset=".31" style="stop-color:#011946"/><stop offset=".37" style="stop-color:#02275a"/><stop offset=".41" style="stop-color:#03346c"/><stop offset=".44" style="stop-color:#0b4f87"/><stop offset=".48" style="stop-color:#1676af"/><stop offset=".51" style="stop-color:#1c8ec7"/><stop offset=".53" style="stop-color:#1f97d0"/><stop offset="1" style="stop-color:#1f97d0"/></radialGradient><path fill="url(#a)" d="M150.83 8.63C72.08 8.63 8.3 31.9 8.3 60.7c0 28.79 63.78 52.08 142.53 52.08s142.53-23.3 142.53-52.08c0-28.8-63.78-52.08-142.53-52.08"/><linearGradient id="b" gradientUnits="userSpaceOnUse" x1="-257.22" y1="409.62" x2="-253.95" y2="409.62" gradientTransform="matrix(0 -33.7605 -33.7605 0 13979.6 -8567.5)"><stop offset="0" style="stop-color:#00082e"/><stop offset=".32" style="stop-color:#010a30"/><stop offset=".5" style="stop-color:#030f39"/><stop offset=".65" style="stop-color:#071846"/><stop offset=".77" style="stop-color:#0d245a"/><stop offset=".81" style="stop-color:#0f2961"/><stop offset=".84" style="stop-color:#0b386e"/><stop offset=".9" style="stop-color:#054e83"/><stop offset=".95" style="stop-color:#015b90"/><stop offset="1" style="stop-color:#006094"/></linearGradient><path fill="url(#b)" d="M151.48 19.55c66.95 0 122.23 16.36 130.67 37.53-5.64-22.28-62.28-39.78-131.33-39.78-72.79 0-131.79 19.44-131.79 43.42 0 1.96.4 3.88 1.15 5.77a14.8 14.8 0 0 1-.5-3.77c0-23.84 59-43.17 131.8-43.17z"/><linearGradient id="c" gradientUnits="userSpaceOnUse" x1="-257.22" y1="409.58" x2="-253.95" y2="409.58" gradientTransform="matrix(0 -33.7605 -33.7605 0 13980.13 -8567.51)"><stop offset="0" style="stop-color:#00082e"/><stop offset=".32" style="stop-color:#010a30"/><stop offset=".5" style="stop-color:#030f39"/><stop offset=".65" style="stop-color:#071846"/><stop offset=".77" style="stop-color:#0d245a"/><stop offset=".81" style="stop-color:#0f2961"/><stop offset=".84" style="stop-color:#0b386e"/><stop offset=".9" style="stop-color:#054e83"/><stop offset=".95" style="stop-color:#015b90"/><stop offset="1" style="stop-color:#006094"/></linearGradient><path fill="url(#c)" d="M286.52 55.3c.59 1.78.88 3.59.88 5.43 0 26.25-61.15 47.54-136.58 47.54-67.14 0-122.95-16.87-134.43-39.07 8.71 23.08 65.79 40.9 134.97 40.98h.84c75.24-.07 136.16-21.14 136.16-47.14 0-2.63-.62-5.23-1.84-7.75z"/><linearGradient id="d" gradientUnits="userSpaceOnUse" x1="-259.93" y1="412.54" x2="-256.66" y2="412.54" gradientTransform="matrix(0 -23.7353 -23.7353 0 9967.25 -6071.98)"><stop offset="0" style="stop-color:#00082e"/><stop offset=".32" style="stop-color:#010a30"/><stop offset=".5" style="stop-color:#030f39"/><stop offset=".65" style="stop-color:#071846"/><stop offset=".77" style="stop-color:#0d245a"/><stop offset=".81" style="stop-color:#0f2961"/><stop offset=".84" style="stop-color:#0b386e"/><stop offset=".9" style="stop-color:#054e83"/><stop offset=".95" style="stop-color:#015b90"/><stop offset="1" style="stop-color:#006094"/></linearGradient><path fill="url(#d)" d="M177.1 68.04a4.36 4.36 0 0 1-.18-2.47c.06-.3-.33-.58-.65-.25-3.06 3.2-3.3 7.32-1.29 9.17.72.67 1.54.96 2.42 1.02a6.8 6.8 0 0 1-.3-7.47z"/><linearGradient id="e" gradientUnits="userSpaceOnUse" x1="-259.94" y1="411.61" x2="-256.71" y2="411.61" gradientTransform="matrix(0 -23.6812 -23.6812 0 9955.55 -6058.5)"><stop offset="0" style="stop-color:#00082e"/><stop offset=".32" style="stop-color:#010a30"/><stop offset=".5" style="stop-color:#030f39"/><stop offset=".65" style="stop-color:#071846"/><stop offset=".77" style="stop-color:#0d245a"/><stop offset=".81" style="stop-color:#0f2961"/><stop offset=".84" style="stop-color:#0b386e"/><stop offset=".9" style="stop-color:#054e83"/><stop offset=".95" style="stop-color:#015b90"/><stop offset="1" style="stop-color:#006094"/></linearGradient><path fill="url(#e)" d="m208.09 74.18.48-.96c.13-.26.06-.34-.04-.38-.32-.12-.64-.35-.69-.6a.42.42 0 0 1-.03-.14v.03c.05.47.18 1.38.28 2.05z"/><linearGradient id="f" gradientUnits="userSpaceOnUse" x1="-259.94" y1="411.47" x2="-256.7" y2="411.47" gradientTransform="matrix(0 -23.681 -23.681 0 9956.92 -6058.43)"><stop offset="0" style="stop-color:#00082e"/><stop offset=".32" style="stop-color:#010a30"/><stop offset=".5" style="stop-color:#030f39"/><stop offset=".65" style="stop-color:#071846"/><stop offset=".77" style="stop-color:#0d245a"/><stop offset=".81" style="stop-color:#0f2961"/><stop offset=".84" style="stop-color:#0b386e"/><stop offset=".9" style="stop-color:#054e83"/><stop offset=".95" style="stop-color:#015b90"/><stop offset="1" style="stop-color:#006094"/></linearGradient><path fill="url(#f)" d="M211.56 61.7a5.52 5.52 0 0 1 1.76 3.25c.05.52.44.58.76.12l.3-.44-.28-.37c-.45-.53-1.51-1.67-2.54-2.57z"/><linearGradient id="g" gradientUnits="userSpaceOnUse" x1="-259.95" y1="412.71" x2="-256.68" y2="412.71" gradientTransform="matrix(0 -23.6962 -23.6962 0 9949.97 -6062.23)"><stop offset="0" style="stop-color:#00082e"/><stop offset=".32" style="stop-color:#010a30"/><stop offset=".5" style="stop-color:#030f39"/><stop offset=".65" style="stop-color:#071846"/><stop offset=".77" style="stop-color:#0d245a"/><stop offset=".81" style="stop-color:#0f2961"/><stop offset=".84" style="stop-color:#0b386e"/><stop offset=".9" style="stop-color:#054e83"/><stop offset=".95" style="stop-color:#015b90"/><stop offset="1" style="stop-color:#006094"/></linearGradient><path fill="url(#g)" d="M169.2 59.68c.81 1.12 1.2 2.73 1.14 4.77-.01.54.37.5.62.14l.4-.56V64c-.59-1.84-1.5-3.64-2.17-4.33z"/><linearGradient id="h" gradientUnits="userSpaceOnUse" x1="-259.94" y1="411.8" x2="-256.68" y2="411.8" gradientTransform="matrix(0 -23.7124 -23.7124 0 9965.84 -6066.27)"><stop offset="0" style="stop-color:#00082e"/><stop offset=".32" style="stop-color:#010a30"/><stop offset=".5" style="stop-color:#030f39"/><stop offset=".65" style="stop-color:#071846"/><stop offset=".77" style="stop-color:#0d245a"/><stop offset=".81" style="stop-color:#0f2961"/><stop offset=".84" style="stop-color:#0b386e"/><stop offset=".9" style="stop-color:#054e83"/><stop offset=".95" style="stop-color:#015b90"/><stop offset="1" style="stop-color:#006094"/></linearGradient><path fill="url(#h)" d="M207.28 65.1c-2.52-1.2-6.37 1.01-9.85 5.3-2.85 3.5-4.4 7.07-4.45 10.54-.02 1.24.45 2.77 1.54 3.33.36.19.71.31 1.1.37-.14-.5-.2-.98-.2-1.4-.04-3.58 1.07-7.16 3.93-10.67 3.46-4.26 7.1-6.39 9.62-5.21a2.8 2.8 0 0 0-1.69-2.26z"/><linearGradient id="i" gradientUnits="userSpaceOnUse" x1="-259.96" y1="413.79" x2="-256.69" y2="413.79" gradientTransform="matrix(0 -23.6585 -23.6585 0 9923.75 -6052.83)"><stop offset="0" style="stop-color:#00082e"/><stop offset=".32" style="stop-color:#010a30"/><stop offset=".5" style="stop-color:#030f39"/><stop offset=".65" style="stop-color:#071846"/><stop offset=".77" style="stop-color:#0d245a"/><stop offset=".81" style="stop-color:#0f2961"/><stop offset=".84" style="stop-color:#0b386e"/><stop offset=".9" style="stop-color:#054e83"/><stop offset=".95" style="stop-color:#015b90"/><stop offset="1" style="stop-color:#006094"/></linearGradient><path fill="url(#i)" d="M131.85 72.2c2.65-3.6 5.65-4.96 9.06-6.44.45-.2.5-.45.42-.84-.15-.68-.62-2.37-.77-2.78.11.37.02.66-.43.82-3.87 1.47-7.75 3.76-10.44 7.35-3.05 4.09-3.87 9-1.83 11.83a4.75 4.75 0 0 0 1.7 1.47c-1.1-3.38-.3-7.9 2.29-11.4z"/><linearGradient id="j" gradientUnits="userSpaceOnUse" x1="-259.95" y1="412.8" x2="-256.68" y2="412.8" gradientTransform="matrix(0 -23.6866 -23.6866 0 9945.25 -6059.85)"><stop offset="0" style="stop-color:#00082e"/><stop offset=".32" style="stop-color:#010a30"/><stop offset=".5" style="stop-color:#030f39"/><stop offset=".65" style="stop-color:#071846"/><stop offset=".77" style="stop-color:#0d245a"/><stop offset=".81" style="stop-color:#0f2961"/><stop offset=".84" style="stop-color:#0b386e"/><stop offset=".9" style="stop-color:#054e83"/><stop offset=".95" style="stop-color:#015b90"/><stop offset="1" style="stop-color:#006094"/></linearGradient><path fill="url(#j)" d="M151.35 93.58h8.01c.33-.03.56-.21.73-.45 3.25-5.1 6.73-10.64 10.05-15.74.73 2.57 1.1 3.77 2.46 4.99 1.39 1.23 2.66 1.55 4.54 1.57 1.7.02 3.39-.66 5.4-1.5.7-.3 1.35-.66 1.93-1.03 0-.95.1-1.9.26-2.8.01-.1-.08-.73-.62-.36-.92.66-2.12 1.4-3.62 1.95-1.84.69-2.7.95-4.41.93a6.25 6.25 0 0 1-5.44-3.06c-.76-1.14-1.08-2.9-1.15-4.18-.01-.14-.2-.39-.4-.06-3.6 5.51-6.98 10.84-10.56 16.44-.18.27-.35.44-.72.45l-7.07.01c-.26 0-.44-.12-.5-.3.2.86.51 2.41.6 2.77.05.24.24.37.5.37z"/><linearGradient id="k" gradientUnits="userSpaceOnUse" x1="-259.87" y1="411.51" x2="-256.6" y2="411.51" gradientTransform="scale(23.8873) rotate(-90 82.23 -338)"><stop offset="0" style="stop-color:#00082e"/><stop offset=".32" style="stop-color:#010a30"/><stop offset=".5" style="stop-color:#030f39"/><stop offset=".65" style="stop-color:#071846"/><stop offset=".77" style="stop-color:#0d245a"/><stop offset=".81" style="stop-color:#0f2961"/><stop offset=".84" style="stop-color:#0b386e"/><stop offset=".9" style="stop-color:#054e83"/><stop offset=".95" style="stop-color:#015b90"/><stop offset="1" style="stop-color:#006094"/></linearGradient><path fill="url(#k)" d="M186.39 90.53a7.96 7.96 0 0 0 2.78 2.87c4.7 2.32 11.4-.3 15.7-4.45l.12-.12.47 1.77c.3.96.75 1.83 1.16 2.3 2.94 3.32 9.2 1.8 15.7-3.23 3.64-2.8 6.34-5.63 9.64-9.48.13-.16.12-.4.05-.75-.2-.84-.49-2.35-.66-3.11a.6.6 0 0 1-.12.35c-3.45 4.2-7.26 8.18-10.91 10.99-5.67 4.4-11.33 5.5-14.13 2.7a6.06 6.06 0 0 1-1.69-3.82c-.03-.69-.38-.72-.7-.4-3.35 3.31-9.16 6.98-14.46 4.37-2.73-1.35-4.15-3.88-4.66-6.66l.02.1c.33 1.97.76 4.81 1.69 6.57z"/><linearGradient id="l" gradientUnits="userSpaceOnUse" x1="-259.89" y1="412.3" x2="-256.63" y2="412.3" gradientTransform="matrix(0 -23.8273 -23.8273 0 10006.14 -6094.86)"><stop offset="0" style="stop-color:#00082e"/><stop offset=".32" style="stop-color:#010a30"/><stop offset=".5" style="stop-color:#030f39"/><stop offset=".65" style="stop-color:#071846"/><stop offset=".77" style="stop-color:#0d245a"/><stop offset=".81" style="stop-color:#0f2961"/><stop offset=".84" style="stop-color:#0b386e"/><stop offset=".9" style="stop-color:#054e83"/><stop offset=".95" style="stop-color:#015b90"/><stop offset="1" style="stop-color:#006094"/></linearGradient><path fill="url(#l)" d="M184.05 72.57c1.74-.94 3.28-2.94 3.08-6.18-.1-1.62-.56-3.28-1.32-4.63.51.98.73 2.13.55 3.33a6.4 6.4 0 0 1-3.4 4.9c-1.64.8-3.55.65-4.88-.54a3.88 3.88 0 0 1-.94-1.32c.34 1.58.64 2.74 1.06 3.36 1.26 1.9 3.44 2.39 5.85 1.08z"/><linearGradient id="m" gradientUnits="userSpaceOnUse" x1="-259.96" y1="411.14" x2="-256.69" y2="411.14" gradientTransform="matrix(0 -23.6646 -23.6646 0 9953.8 -6054.35)"><stop offset="0" style="stop-color:#00082e"/><stop offset=".32" style="stop-color:#010a30"/><stop offset=".5" style="stop-color:#030f39"/><stop offset=".65" style="stop-color:#071846"/><stop offset=".77" style="stop-color:#0d245a"/><stop offset=".81" style="stop-color:#0f2961"/><stop offset=".84" style="stop-color:#0b386e"/><stop offset=".9" style="stop-color:#054e83"/><stop offset=".95" style="stop-color:#015b90"/><stop offset="1" style="stop-color:#006094"/></linearGradient><path fill="url(#m)" d="M235.87 45.17c-1.1 1.9-22.3 34.18-23.65 37.52-.42 1.06-.47 1.87-.04 2.45.44.58 1.08.8 1.8.8.08-.41.23-.87.42-1.36 1.34-3.34 21.2-33.52 22.3-35.43.08-.16.05-.35.02-.47l-.8-3.81c.03.08 0 .19-.05.3z"/><linearGradient id="n" gradientUnits="userSpaceOnUse" x1="-259.95" y1="413.32" x2="-256.68" y2="413.32" gradientTransform="matrix(0 -23.6911 -23.6911 0 9941.6 -6060.96)"><stop offset="0" style="stop-color:#00082e"/><stop offset=".32" style="stop-color:#010a30"/><stop offset=".5" style="stop-color:#030f39"/><stop offset=".65" style="stop-color:#071846"/><stop offset=".77" style="stop-color:#0d245a"/><stop offset=".81" style="stop-color:#0f2961"/><stop offset=".84" style="stop-color:#0b386e"/><stop offset=".9" style="stop-color:#054e83"/><stop offset=".95" style="stop-color:#015b90"/><stop offset="1" style="stop-color:#006094"/></linearGradient><path fill="url(#n)" d="m147.86 60.2.17.2c1.27 1.9 1.97 4.57 2.04 7.33.08.58.33.6.6.3.27-.27.52-.55.77-.82a23.02 23.02 0 0 0-1.55-4.1 12.9 12.9 0 0 0-2.03-2.92z"/><linearGradient id="o" gradientUnits="userSpaceOnUse" x1="-259.95" y1="413.68" x2="-256.69" y2="413.68" gradientTransform="matrix(0 -23.6823 -23.6823 0 9934.37 -6058.77)"><stop offset="0" style="stop-color:#00082e"/><stop offset=".32" style="stop-color:#010a30"/><stop offset=".5" style="stop-color:#030f39"/><stop offset=".65" style="stop-color:#071846"/><stop offset=".77" style="stop-color:#0d245a"/><stop offset=".81" style="stop-color:#0f2961"/><stop offset=".84" style="stop-color:#0b386e"/><stop offset=".9" style="stop-color:#054e83"/><stop offset=".95" style="stop-color:#015b90"/><stop offset="1" style="stop-color:#006094"/></linearGradient><path fill="url(#o)" d="M113.65 90.36c.38.2.78.02.97-.08 1.3-.67 3.81-2.6 4.9-3.96.33-.3.64-.1.75.24a15.46 15.46 0 0 0 1.86 3.72 7.9 7.9 0 0 0 4.55 3.25c2.73.76 5.67.9 9.54-.58 3.1-1.19 6.36-3.61 8.86-6.33 3-3.26 4.09-5.35 5.22-6.77 1.95-2.41 4.98-6.68 9.23-10.3 1.49-1.27 3.12-2.1 4.13-1.7.62-1.58.33-2.45-.32-2.88-1-.64-2.99.33-4.67 1.6-4.57 3.47-8.41 8.87-10.36 11.28-1.15 1.42-2.23 3.52-5.23 6.77-4.71 5.12-10.96 8.06-16.99 6.03a10.2 10.2 0 0 1-6.57-7c-.19-.63-.54-.8-.88-.39-.97 1.22-2.96 3-4.63 4.13-.18.13-.63.4-1.01.2-.35-.15-1.59-1.9-1.83-2.4a.49.49 0 0 1-.06-.17v.02c.43 2.15.49 2.4 1.07 3.4a8.24 8.24 0 0 0 1.47 1.92z"/><linearGradient id="p" gradientUnits="userSpaceOnUse" x1="-259.96" y1="415.4" x2="-256.69" y2="415.4" gradientTransform="matrix(0 -23.6627 -23.6627 0 9908.65 -6053.87)"><stop offset="0" style="stop-color:#00082e"/><stop offset=".32" style="stop-color:#010a30"/><stop offset=".5" style="stop-color:#030f39"/><stop offset=".65" style="stop-color:#071846"/><stop offset=".77" style="stop-color:#0d245a"/><stop offset=".81" style="stop-color:#0f2961"/><stop offset=".84" style="stop-color:#0b386e"/><stop offset=".9" style="stop-color:#054e83"/><stop offset=".95" style="stop-color:#015b90"/><stop offset="1" style="stop-color:#006094"/></linearGradient><path fill="url(#p)" d="M77.3 71.09c1.52-3.07 3.66-4.54 5.77-5.87.9-.57 1.3-1.13.77-2.62-.16-.43-.24-1.2-.41-1.88.05.67-.28 1.24-.86 1.54-2.58 1.31-5.67 3.56-7.2 6.63a8.14 8.14 0 0 0 .92 9.07c-.6-2.38.05-4.95 1-6.87z"/><linearGradient id="q" gradientUnits="userSpaceOnUse" x1="-259.88" y1="414.26" x2="-256.61" y2="414.26" gradientTransform="matrix(0 -23.8868 -23.8868 0 10009.1 -6109.64)"><stop offset="0" style="stop-color:#00082e"/><stop offset=".32" style="stop-color:#010a30"/><stop offset=".5" style="stop-color:#030f39"/><stop offset=".65" style="stop-color:#071846"/><stop offset=".77" style="stop-color:#0d245a"/><stop offset=".81" style="stop-color:#0f2961"/><stop offset=".84" style="stop-color:#0b386e"/><stop offset=".9" style="stop-color:#054e83"/><stop offset=".95" style="stop-color:#015b90"/><stop offset="1" style="stop-color:#006094"/></linearGradient><path fill="url(#q)" d="M103.63 33.82c9.35-3.08 19.78-1.13 28.15.66 1.17-.73 2.2-1.24 3.22-1.8.52-.27-.06-.59-.22-.59-10.8-2.03-22.04-4.66-32.77-.68-7.44 2.77-10.7 8.67-9.12 12.6.3.76.77 1.34 1.4 1.76-.53-3.64 2.2-9.59 9.34-11.95z"/><linearGradient id="r" gradientUnits="userSpaceOnUse" x1="-259.96" y1="414.67" x2="-256.69" y2="414.67" gradientTransform="matrix(0 -23.6757 -23.6757 0 9921.36 -6057.12)"><stop offset="0" style="stop-color:#00082e"/><stop offset=".32" style="stop-color:#010a30"/><stop offset=".5" style="stop-color:#030f39"/><stop offset=".65" style="stop-color:#071846"/><stop offset=".77" style="stop-color:#0d245a"/><stop offset=".81" style="stop-color:#0f2961"/><stop offset=".84" style="stop-color:#0b386e"/><stop offset=".9" style="stop-color:#054e83"/><stop offset=".95" style="stop-color:#015b90"/><stop offset="1" style="stop-color:#006094"/></linearGradient><path fill="url(#r)" d="M73.22 90.34c3.06 2.16 6.08 2.87 9.6 2.94 7.15.12 13.69-2.83 20.61-9.86 6.65-6.75 12.41-16.18 18.09-25.53.19-.33.39-.48 1.34-.6 3.56-.44 6.75-.65 9.9-.94.94-.09 1.65-.18 2 .16a18.6 18.6 0 0 0 3.32 2.69c.58 0 1.07.13 1.41.44.37-.05.7-.25.92-.46.41-.4.43-.87.36-1.27-.14-.77-.35-2.3-.6-2.75.17.34.06.82-.28 1.2a1.5 1.5 0 0 1-1.13.55c-.41-.01-.65-.15-1.17-.43a10.97 10.97 0 0 1-3.25-2.62c-.3-.37-.45-.38-1.2-.34-3.36.2-8.61.7-12.17 1.15-.86.1-.99.27-1.16.56-5.68 9.35-11.73 19.44-18.38 26.19-7.13 7.24-13.06 9.14-19.35 9.2-7.26.04-13.71-4.07-15.35-11.3.88 4.04 3.48 8.9 6.48 11.02z"/><linearGradient id="s" gradientUnits="userSpaceOnUse" x1="-259.92" y1="414.56" x2="-256.66" y2="414.56" gradientTransform="scale(23.7655) rotate(-90 81.6 -337.4)"><stop offset="0" style="stop-color:#00082e"/><stop offset=".32" style="stop-color:#010a30"/><stop offset=".5" style="stop-color:#030f39"/><stop offset=".65" style="stop-color:#071846"/><stop offset=".77" style="stop-color:#0d245a"/><stop offset=".81" style="stop-color:#0f2961"/><stop offset=".84" style="stop-color:#0b386e"/><stop offset=".9" style="stop-color:#054e83"/><stop offset=".95" style="stop-color:#015b90"/><stop offset="1" style="stop-color:#006094"/></linearGradient><path fill="url(#s)" d="M100.03 58.91a1.54 1.54 0 0 1-.25-.8c-.07 1.2.41 2.99.8 3.58.44.66 1.65 1 2.61.28a15.15 15.15 0 0 1 6.32-2.95l1.87-2.58c.06-.08.08-.18.05-.23-.04-.09-.1-.11-.25-.12a14.71 14.71 0 0 0-8.74 3.09c-.78.57-1.91.49-2.4-.27z"/><linearGradient id="t" gradientUnits="userSpaceOnUse" x1="-259.96" y1="413.08" x2="-256.69" y2="413.08" gradientTransform="matrix(0 -23.6632 -23.6632 0 9933.02 -6054)"><stop offset="0" style="stop-color:#00082e"/><stop offset=".32" style="stop-color:#010a30"/><stop offset=".5" style="stop-color:#030f39"/><stop offset=".65" style="stop-color:#071846"/><stop offset=".77" style="stop-color:#0d245a"/><stop offset=".81" style="stop-color:#0f2961"/><stop offset=".84" style="stop-color:#0b386e"/><stop offset=".9" style="stop-color:#054e83"/><stop offset=".95" style="stop-color:#015b90"/><stop offset="1" style="stop-color:#006094"/></linearGradient><path fill="url(#t)" d="M187.5 37.01c-4.5 2.47-9.2 3.21-14.11 3.25-11.88.1-22.94-4.52-34.38-7.01.01.5.14 1.1-.28 1.41-6.34 4.68-12.07 9.43-15.9 16.1-.13.15-.06.3.16.28l2.95-.14c3.5-5.48 7.24-8.62 12.95-12.84.43-.32.86-.55.72-1.77 11.48 2.55 20.21 6.77 35.03 6.81 4.43.02 10.67-1.46 14.02-3.48 3.86-2.32 4.88-4.02 5.02-5.83.05-.56-.1-1.4-.2-1.83-.12-.6-.2-1.39-.38-1.97.06.24.08.5.06.8-.12 2.07-1.72 4.07-5.67 6.22z"/><linearGradient id="u" gradientUnits="userSpaceOnUse" x1="-259.94" y1="413.64" x2="-256.67" y2="413.64" gradientTransform="matrix(0 -23.7167 -23.7167 0 9948.34 -6067.3)"><stop offset="0" style="stop-color:#00082e"/><stop offset=".32" style="stop-color:#010a30"/><stop offset=".5" style="stop-color:#030f39"/><stop offset=".65" style="stop-color:#071846"/><stop offset=".77" style="stop-color:#0d245a"/><stop offset=".81" style="stop-color:#0f2961"/><stop offset=".84" style="stop-color:#0b386e"/><stop offset=".9" style="stop-color:#054e83"/><stop offset=".95" style="stop-color:#015b90"/><stop offset="1" style="stop-color:#006094"/></linearGradient><path fill="url(#u)" d="m137.89 44.75-.46.41a4.8 4.8 0 0 0-1.3 3.9c.08.48.27.58.49.54.21-.05.43-.12.65-.21.08-.65.35-1.27 1-1.85a1.97 1.97 0 0 1 1.58-.53c.44-.86.56-1.9.03-2.37-.51-.45-1.33-.36-1.99.1z"/><linearGradient id="v" gradientUnits="userSpaceOnUse" x1="-259.96" y1="413.59" x2="-256.69" y2="413.59" gradientTransform="matrix(0 -23.666 -23.666 0 9928.75 -6054.69)"><stop offset="0" style="stop-color:#00082e"/><stop offset=".32" style="stop-color:#010a30"/><stop offset=".5" style="stop-color:#030f39"/><stop offset=".65" style="stop-color:#071846"/><stop offset=".77" style="stop-color:#0d245a"/><stop offset=".81" style="stop-color:#0f2961"/><stop offset=".84" style="stop-color:#0b386e"/><stop offset=".9" style="stop-color:#054e83"/><stop offset=".95" style="stop-color:#015b90"/><stop offset="1" style="stop-color:#006094"/></linearGradient><path fill="url(#v)" d="M142.46 48.81a7.6 7.6 0 0 1-4.61 3.74s-.36.08-.3.4c.03.38 1.26 1.15 2.02 1.7l.28-.1a6.06 6.06 0 0 0 3.2-3.11c.55-1.2.85-2.15.61-4.21a10.35 10.35 0 0 0-.85-3.42c.75 1.51.45 3.45-.35 5z"/><linearGradient id="w" gradientUnits="userSpaceOnUse" x1="-259.96" y1="414.83" x2="-256.69" y2="414.83" gradientTransform="matrix(0 -23.6715 -23.6715 0 9917.98 -6056.06)"><stop offset="0" style="stop-color:#00082e"/><stop offset=".32" style="stop-color:#010a30"/><stop offset=".5" style="stop-color:#030f39"/><stop offset=".65" style="stop-color:#071846"/><stop offset=".77" style="stop-color:#0d245a"/><stop offset=".81" style="stop-color:#0f2961"/><stop offset=".84" style="stop-color:#0b386e"/><stop offset=".9" style="stop-color:#054e83"/><stop offset=".95" style="stop-color:#015b90"/><stop offset="1" style="stop-color:#006094"/></linearGradient><path fill="url(#w)" d="M110.55 41.38c-3.14 7.38-9.14 13.23-16.45 13.47-4.08.14-7.21-1.78-8.87-4.72a15.58 15.58 0 0 0 5.1 5.27c1.58.98 3.54 1.53 5.77 1.46 7.61-.26 13.38-6.54 15.3-11.84.51-1.43.11-2.96-.13-4-.1-.4-.22-1.3-.51-1.94.21.53.21 1.31-.2 2.3z"/><path fill="#4B4B4B" d="M150.82 6.46C70.48 6.46 6.08 30.54 6.08 60.74c0 30.01 64.93 54.28 144.74 54.28 79.82 0 144.76-24.35 144.76-54.28S230.64 6.46 150.82 6.46M7.07 61.34c-.03-6.36 2.77-12.67 8.66-18.6C36.45 21.82 90.75 7.7 150.59 7.45c79.26-.33 143.86 23.3 144 52.68.03 6.36-2.94 12.58-8.83 18.52-20.72 20.9-74.85 35.12-134.69 35.36-79.26.33-143.87-23.3-144-52.68m287.63-4.8.13.8-.13-.8"/><linearGradient id="x" gradientUnits="userSpaceOnUse" x1="-254.23" y1="410.45" x2="-250.96" y2="410.45" gradientTransform="scale(-39.5764 39.5764) rotate(-75 -393.75 43.3)"><stop offset="0" style="stop-color:#a5a5a6"/><stop offset=".35" style="stop-color:#d7d7d7"/><stop offset=".65" style="stop-color:#d7d7d7"/><stop offset="1" style="stop-color:#a5a5a6"/></linearGradient><path fill="url(#x)" d="M6.51 60.74c0 1.41.17 2.82.46 4.2-.22-1.19-.34-2.39-.35-3.6-.03-6.44 2.85-12.94 8.79-18.93C36.24 21.4 90.59 7.25 150.58 7.01c8.31-.05 16.46.19 24.4.66-7.86-.5-15.92-.76-24.15-.76C70.8 6.91 6.5 30.91 6.5 60.74z"/><linearGradient id="y" gradientUnits="userSpaceOnUse" x1="206.88" y1="71.96" x2="173.5" y2="-52.61"><stop offset="0" style="stop-color:#a5a5a6"/><stop offset=".35" style="stop-color:#d7d7d7"/><stop offset=".65" style="stop-color:#d7d7d7"/><stop offset="1" style="stop-color:#a5a5a6"/></linearGradient><path fill="url(#y)" d="M286.08 79c-20.76 20.94-75.1 35.23-135 35.48-8.48.03-16.78-.2-24.86-.68 8 .5 16.22.77 24.6.77 79.58 0 144.31-24.3 144.31-53.81 0-1.13-.1-2.25-.29-3.36.13.91.2 1.83.2 2.76.04 6.43-3.02 12.85-8.96 18.84"/><path fill="#FFF" d="M150.82 13.18c-75.44 0-136.6 21.28-136.6 47.54 0 26.26 61.16 47.55 136.6 47.55 75.43 0 136.58-21.29 136.58-47.55 0-26.26-61.15-47.54-136.58-47.54zm0 90.97c-72.79 0-131.79-19.44-131.79-43.43 0-23.98 59-43.42 131.79-43.42 72.8 0 131.79 19.44 131.79 43.42 0 24-59 43.43-131.8 43.43z"/><path fill="#FFF" d="M235.87 45.17c.18-.33-.01-.57-.43-.57h-7.32c-.54 0-.82.06-1.07.57-.84 1.61-11.07 16.93-12.97 19.9-.32.46-.71.4-.76-.12-.19-1.77-1.71-3.8-4.12-4.77a10.44 10.44 0 0 0-5.48-.63c-3.37.45-6.36 2.23-9 4.22-3.97 3.02-7.4 6.93-11.81 9.82-2.41 1.57-5.72 2.95-7.93.9-2-1.85-1.77-5.98 1.29-9.17.32-.33.7-.05.65.25a4.03 4.03 0 0 0 1.16 3.88 4.37 4.37 0 0 0 4.88.53 6.4 6.4 0 0 0 3.4-4.9c.5-3.25-2-6.12-5.13-6.35-2.55-.18-4.99.7-7.36 2.67-1.2 1-1.87 1.72-2.9 3.19-.26.36-.64.4-.63-.14.12-4.16-1.6-6.5-5.05-6.58-2.67-.07-5.52 1.39-7.75 3.16-2.44 1.95-4.57 4.55-6.86 7-.28.3-.53.28-.6-.3-.08-2.77-.77-5.44-2.05-7.34a1.7 1.7 0 0 0-2.2-.54c-.37.2-1.66.8-2.6 1.55-.45.38-.63.93-.43 1.64a19.3 19.3 0 0 1-.71 12.78c-1.53 3.62-4.52 6.9-8.03 8-2.3.73-4.71.37-6.2-1.68-2.04-2.83-1.22-7.74 1.83-11.83 2.69-3.6 6.57-5.88 10.44-7.35.46-.18.56-.47.43-.86-.21-.63-.55-1.5-.69-1.9-.35-.94-1.35-1.1-2.57-.96-2.81.32-5.35 1.29-7.86 2.63-6.57 3.52-9.86 10.33-11.3 13.97a14.14 14.14 0 0 1-2.07 3.81c-1.03 1.3-2.33 2.49-4.7 4.58a.84.84 0 0 0-.2.96c.24.5 1.48 2.25 1.83 2.4.38.2.83-.07 1.01-.2a24.33 24.33 0 0 0 4.63-4.13c.34-.42.7-.24.88.39a10.2 10.2 0 0 0 6.57 7c6.03 2.03 12.28-.91 17-6.03 2.99-3.25 4.07-5.35 5.22-6.77 1.95-2.41 5.79-7.8 10.36-11.27 1.68-1.28 3.67-2.25 4.66-1.6.8.51 1.06 1.72-.22 4.05-4.66 8.52-11.53 18.53-12.8 20.95-.22.43-.02.76.42.76h7.08c.37-.02.53-.2.72-.46 3.58-5.6 6.95-10.93 10.56-16.44.2-.32.38-.08.4.06a9.1 9.1 0 0 0 1.14 4.18 6.25 6.25 0 0 0 5.45 3.06c1.7.02 2.56-.24 4.4-.93 1.5-.56 2.7-1.29 3.63-1.95.53-.37.63.26.62.35-.83 4.45.19 9.72 4.61 11.9 5.3 2.62 11.1-1.05 14.45-4.36.33-.32.67-.29.71.4a6.06 6.06 0 0 0 1.69 3.81c2.8 2.81 8.45 1.7 14.12-2.7 3.65-2.8 7.46-6.78 10.91-10.98.12-.17.22-.43-.02-.7-.53-.54-1.29-1.17-1.8-1.66-.24-.2-.59-.14-.8.01-3.52 3.36-6.7 7.2-11.3 10.35-1.54 1.09-4 1.96-5.12.46-.43-.58-.38-1.4.04-2.45 1.34-3.34 22.55-35.62 23.65-37.52m-28.03 27.07c.05.25.37.48.69.6.1.04.17.12.04.38-.9 1.93-1.73 3.04-2.86 4.72a17.76 17.76 0 0 1-3.62 3.93c-2.14 1.77-5.11 3.7-7.57 2.4-1.09-.56-1.56-2.1-1.53-3.33.05-3.47 1.59-7.04 4.44-10.54 3.48-4.29 7.33-6.5 9.85-5.3 2.61 1.25 1.78 4.27.61 6.65a.64.64 0 0 0-.05.49"/><path fill="#FFF" d="M82.09 90.61c-7.9.06-14.87-4.83-15.67-13.28-.44-4.69.88-8.87 3.53-12.3 2.36-3.08 6.34-5.62 9.7-6.25 1.1-.2 2.58-.07 3.2.66.95 1.11.67 2.34-.28 2.82-2.57 1.31-5.67 3.56-7.2 6.63a8.14 8.14 0 0 0 .4 8.4c3.18 4.79 12.02 4.92 20.25-2.72a72.15 72.15 0 0 0 5.72-5.8c3.62-4.14 4.83-5.65 9.64-12.33.06-.08.08-.18.05-.23-.04-.09-.1-.11-.25-.12a14.71 14.71 0 0 0-8.74 3.09c-.78.57-1.91.49-2.4-.27-.56-.85-.16-1.96.74-2.58 4.38-3.05 9.17-3.6 14.06-4.43 0 0 .34.01.62-.36 2-2.57 3.52-4.9 5.67-7.5a57.74 57.74 0 0 1 7.07-6.9c2.97-2.55 4.87-3.4 6.8-4.46.52-.27-.05-.59-.21-.59-10.81-2.03-22.05-4.66-32.78-.69-7.44 2.78-10.7 8.68-9.12 12.61 1.1 2.8 4.78 3.25 8.22 1.57 2.86-1.4 5.5-3.65 7.38-6.56 1.05-1.61 3.26-.45 2.06 2.35-3.14 7.39-9.14 13.24-16.44 13.48-6.23.21-10.24-4.37-10.23-10.01.03-11.14 12.43-18.48 25.46-19.57 15.69-1.3 30.55 2.88 46.12 4.77 11.94 1.44 23.39 1.47 35.38-1.28 1.42-.3 2.42.6 2.32 2.03-.12 2.07-1.72 4.06-5.67 6.22-4.5 2.46-9.2 3.21-14.1 3.25-11.88.1-22.94-4.53-34.38-7.01.01.5.14 1.1-.28 1.41-6.34 4.67-12.07 9.43-15.9 16.1-.13.15-.06.3.16.28 3.33-.18 6.33-.26 9.44-.51.54-.05.56-.18.52-.58-.28-2.3.4-4.92 2.41-6.72 2.07-1.86 4.66-2.07 6.38-.74 1.95 1.53 1.78 4.27.71 6.32a7.6 7.6 0 0 1-4.6 3.73s-.36.08-.31.41c.07.53 2.42 1.83 2.62 2.18.2.32.1.84-.27 1.23a1.5 1.5 0 0 1-1.13.54c-.41 0-.65-.15-1.17-.43a10.97 10.97 0 0 1-3.25-2.61c-.3-.37-.45-.38-1.2-.34-3.36.2-8.61.7-12.17 1.15-.86.1-.99.26-1.17.56-5.67 9.35-11.72 19.43-18.37 26.19-7.12 7.24-13.05 9.14-19.34 9.2m54.03-41.56c.1.48.28.58.5.53a5.22 5.22 0 0 0 2.96-2.13c.64-.93.93-2.28.3-2.82-.56-.49-1.48-.35-2.17.25a4.82 4.82 0 0 0-1.59 4.17"/></svg>